<svg width="44" height="44" viewBox="0 0 44 44" fill="none" xmlns="http://www.w3.org/2000/svg">
<g clip-path="url(#clip0)">
<path d="M30.2481 0C27.9024 0.162249 25.1606 1.66374 23.5629 3.61898C22.1054 5.39272 20.9064 8.0272 21.3739 10.5874C23.9369 10.6672 26.5851 9.12995 28.1196 7.14171C29.5551 5.29097 30.6413 2.67298 30.2481 0Z" fill="#444B59"/>
<path d="M39.5183 14.7619C37.2661 11.9377 34.1008 10.2987 31.1116 10.2987C27.1654 10.2987 25.4961 12.1879 22.7544 12.1879C19.9274 12.1879 17.7797 10.3042 14.3669 10.3042C11.0147 10.3042 7.44524 12.3529 5.182 15.8564C2.00027 20.7899 2.54476 30.0656 7.70098 37.9663C9.54622 40.7933 12.0102 43.9723 15.2332 43.9998C18.1014 44.0273 18.9099 42.16 22.7956 42.1408C26.6814 42.1188 27.4184 44.0245 30.2811 43.9943C33.5068 43.9695 36.1056 40.4468 37.9508 37.6198C39.2736 35.5931 39.7658 34.5728 40.7915 32.2848C33.3308 29.4441 32.1346 18.8347 39.5183 14.7619Z" fill="#444B59"/>
</g>
<defs>
<clipPath id="clip0">
<rect width="44" height="44" fill="white"/>
</clipPath>
</defs>
</svg>
