<svg width="252" height="36" viewBox="0 0 252 36" fill="none" xmlns="http://www.w3.org/2000/svg">
<path d="M7.82356 18.2507C7.82356 18.2507 7.99936 18.2739 8.31645 18.3004C11.0949 18.5339 13.89 18.1383 16.4971 17.1425C19.1042 16.1467 21.4573 14.5759 23.3841 12.5451C30.2468 5.30793 35.7393 2.72997 41.6951 4.288C58.2431 8.61605 38.0707 26.2296 38.0707 26.2296L18.8676 29.7762L7.82356 18.2507Z" fill="#9EB0EA"/>
<path d="M1.33546 19.5819C1.33546 19.5819 -2.23308 7.74348 2.2966 10.0234C10.84 14.32 23.3644 35.1705 33.7743 17.8053L26.6274 30.1056L13.7612 31.5461L4.63454 25.4498L1.33546 19.5819Z" fill="#9EB0EA"/>
<path d="M51.1651 8.77335C50.3436 9.26013 49.2626 10.2055 48.4444 12.0103C47.802 13.4309 47.3239 15.3813 47.268 18.0586C47.2006 21.2724 46.0769 24.1715 44.2351 26.6551C39.9354 32.4601 31.7173 36 23.905 36C11.4184 36 1.42746 26.1567 0.11144 13.9276C1.38146 22.1963 8.24744 28.8572 16.8073 28.8572C19.9558 28.8584 23.0436 27.9845 25.7312 26.3318C28.4188 24.679 30.6021 22.3113 32.0409 19.4892C32.7424 18.1233 33.257 16.6679 33.5706 15.1628C33.5754 15.1415 33.5787 15.1199 33.5804 15.0982C33.6051 14.5551 38.948 7.50175 46.5714 7.56633C47.917 7.57792 49.3973 7.77495 51.0304 8.04152C51.1101 8.05475 51.1838 8.09241 51.2414 8.14936C51.2991 8.20631 51.3379 8.27979 51.3526 8.35979C51.3674 8.43978 51.3573 8.52241 51.3237 8.59641C51.2902 8.67042 51.2348 8.7322 51.1651 8.77335Z" fill="#9EB0EA"/>
<path d="M52.606 8.59784C52.606 8.59784 59.3422 0.868932 59.5788 7.10769C59.8154 13.3464 52.606 8.59784 52.606 8.59784Z" fill="#9EB0EA"/>
<path d="M51.543 7.36764C51.543 7.36764 46.44 -1.53847 52.376 0.233151C58.312 2.00477 51.543 7.36764 51.543 7.36764Z" fill="#9EB0EA"/>
<path d="M76.848 7.33819H86.2389C88.6656 7.33819 90.4296 7.89306 91.5308 9.00282C92.632 10.092 93.1826 11.4689 93.1826 13.1336C93.1826 15.2503 92.3159 16.7197 90.5825 17.5418C91.7041 17.9528 92.5403 18.6207 93.0909 19.5455C93.6415 20.4703 93.9168 21.4567 93.9168 22.5048C93.9168 24.2517 93.3254 25.7622 92.1426 27.0363C90.9598 28.2899 89.1347 28.9167 86.6671 28.9167H76.848V7.33819ZM85.7495 15.8155C86.8303 15.8155 87.6358 15.61 88.166 15.1989C88.7166 14.7879 88.9919 14.2228 88.9919 13.5035C88.9919 11.9827 88.0946 11.2223 86.3001 11.2223H80.9776V15.8155H85.7495ZM86.8813 25.0326C87.8805 25.0326 88.6045 24.786 89.0531 24.2928C89.5017 23.779 89.7261 23.183 89.7261 22.5048C89.7261 20.6347 88.4923 19.6996 86.0248 19.6996H80.9776V25.0326H86.8813Z" fill="#9EB0EA"/>
<path d="M101.116 28.9167V7.33819H111.058C113.566 7.33819 115.381 7.97527 116.503 9.24943C117.645 10.503 118.216 12.1163 118.216 14.0892C118.216 15.4045 117.848 16.6581 117.114 17.85C116.401 19.0214 115.381 19.8435 114.055 20.3161L118.216 28.9167H113.566L109.559 20.871H105.246V28.9167H101.116ZM105.246 16.9252H111.119C112.098 16.9252 112.811 16.6581 113.26 16.1237C113.709 15.5894 113.933 14.9112 113.933 14.0892C113.933 13.2877 113.709 12.6198 113.26 12.0855C112.832 11.5511 112.118 11.284 111.119 11.284H105.246V16.9252Z" fill="#9EB0EA"/>
<path d="M125.567 28.9167V7.33819H129.697V28.9167H125.567Z" fill="#9EB0EA"/>
<path d="M144.89 29.2866C142.891 29.2866 141.158 28.7626 139.69 27.7145C138.222 26.6664 137.182 25.2176 136.57 23.368L140.332 21.9499C140.801 22.9775 141.444 23.7995 142.259 24.4161C143.075 25.0326 143.993 25.3409 145.012 25.3409C146.073 25.3409 146.909 25.1148 147.521 24.6627C148.153 24.2106 148.469 23.5632 148.469 22.7206C148.469 22.289 148.367 21.9088 148.163 21.58C147.959 21.2512 147.612 20.9532 147.123 20.6861C146.634 20.4189 146.195 20.2134 145.808 20.0695C145.441 19.9051 144.88 19.6996 144.125 19.453C143.269 19.1653 142.616 18.9392 142.168 18.7748C141.739 18.6104 141.168 18.333 140.455 17.9425C139.741 17.552 139.2 17.1616 138.833 16.7711C138.466 16.3601 138.13 15.8257 137.824 15.1681C137.538 14.4899 137.396 13.7398 137.396 12.9178C137.396 11.2326 138.048 9.82486 139.353 8.69455C140.658 7.5437 142.422 6.96827 144.645 6.96827C146.481 6.96827 148.02 7.43067 149.264 8.35546C150.529 9.28026 151.365 10.4825 151.773 11.9622L148.071 13.1952C147.398 11.6744 146.175 10.9141 144.401 10.9141C143.503 10.9141 142.8 11.099 142.29 11.4689C141.8 11.8183 141.556 12.3218 141.556 12.9794C141.556 13.411 141.76 13.8015 142.168 14.1508C142.575 14.4797 142.993 14.7365 143.422 14.9215C143.85 15.0859 144.523 15.3222 145.441 15.6305C146.154 15.8771 146.705 16.0724 147.092 16.2162C147.48 16.3601 148.01 16.5861 148.683 16.8944C149.356 17.2027 149.876 17.5212 150.243 17.85C150.631 18.1788 151.028 18.5796 151.436 19.0523C151.864 19.5044 152.17 20.049 152.354 20.6861C152.537 21.3026 152.629 21.9808 152.629 22.7206C152.629 24.7552 151.895 26.3581 150.427 27.5295C148.979 28.7009 147.133 29.2866 144.89 29.2866Z" fill="#9EB0EA"/>
<path d="M172.764 28.9167V19.7921H163.801V28.9167H159.672V7.33819H163.801V15.8463H172.764V7.33819H176.893V28.9167H172.764Z" fill="#9EB0EA"/>
<path d="M184.836 28.9167V7.33819H199.458V11.284H188.966V15.8155H195.145V19.7613H188.966V24.9709H200.1V28.9167H184.836Z" fill="#9EB0EA"/>
<path d="M221.513 28.9167L219.861 24.4469H211.602L209.95 28.9167H205.515L213.713 7.33819H217.751L225.949 28.9167H221.513ZM218.515 20.6552L216.405 15.0448C216.078 14.2228 215.854 13.5754 215.732 13.1027C215.609 13.5754 215.385 14.2228 215.059 15.0448L212.948 20.6552H218.515Z" fill="#9EB0EA"/>
<path d="M252 28.9167H247.87V17.8192C247.87 17.3465 247.891 16.7814 247.932 16.1237C247.687 16.843 247.473 17.4082 247.289 17.8192L242.089 29.2866L236.858 17.8192C236.675 17.4082 236.461 16.843 236.216 16.1237C236.257 16.7814 236.277 17.3465 236.277 17.8192V28.9167H232.148V7.33819H236.338L241.6 19.2372C241.763 19.6277 241.946 20.1209 242.15 20.7169C242.354 20.1209 242.538 19.6277 242.701 19.2372L248.054 7.33819H252V28.9167Z" fill="#9EB0EA"/>
</svg>
