<svg width="40" height="40" viewBox="0 0 40 40" fill="none" xmlns="http://www.w3.org/2000/svg">
<path d="M40 20.121C40 9.07261 31.0484 0.121002 20 0.121002C8.95161 0.121002 -1.90735e-06 9.07261 -1.90735e-06 20.121C-1.90735e-06 30.1033 7.31371 38.3775 16.875 39.8791V25.9025H11.7944V20.121H16.875V15.7146C16.875 10.7025 19.8589 7.93391 24.429 7.93391C26.6177 7.93391 28.9064 8.32423 28.9064 8.32423V13.2436H26.3839C23.9 13.2436 23.125 14.7855 23.125 16.367V20.121H28.6718L27.7847 25.9025H23.125V39.8791C32.6863 38.3775 40 30.1033 40 20.121Z" fill="#8699DA"/>
</svg>
