<svg width="38" height="38" viewBox="0 0 38 38" fill="none" xmlns="http://www.w3.org/2000/svg">
<g clip-path="url(#clip0)">
<path d="M8.4216 22.9639L7.09888 27.9018L2.26434 28.0041C0.819524 25.3243 0 22.2582 0 19C0 15.8493 0.766235 12.8782 2.12444 10.2621H2.12548L6.42957 11.0512L8.31502 15.3294C7.9204 16.4799 7.70532 17.7149 7.70532 19C7.70547 20.3947 7.95811 21.731 8.4216 22.9639Z" fill="#FBBB00"/>
<path d="M37.668 15.4505C37.8862 16.5999 38 17.7869 38 19C38 20.3602 37.857 21.6871 37.5845 22.967C36.6596 27.3224 34.2428 31.1255 30.8949 33.8169L30.8938 33.8158L25.4726 33.5392L24.7053 28.7495C26.9268 27.4467 28.663 25.4078 29.5775 22.967H19.4177V15.4505H29.7257H37.668Z" fill="#518EF8"/>
<path d="M30.8938 33.8158L30.8948 33.8169C27.6388 36.434 23.5026 38 19 38C11.7643 38 5.47349 33.9557 2.26434 28.0041L8.42161 22.9639C10.0261 27.2462 14.1571 30.2946 19 30.2946C21.0816 30.2946 23.0318 29.7319 24.7052 28.7495L30.8938 33.8158Z" fill="#28B446"/>
<path d="M31.1277 4.37416L24.9725 9.41331C23.2406 8.33076 21.1934 7.70539 19 7.70539C14.0475 7.70539 9.8393 10.8936 8.31514 15.3294L2.12552 10.2621H2.12448C5.28664 4.16538 11.6568 0 19 0C23.6101 0 27.8371 1.64216 31.1277 4.37416Z" fill="#F14336"/>
</g>
<defs>
<clipPath id="clip0">
<rect width="38" height="38" fill="white"/>
</clipPath>
</defs>
</svg>
