<svg width="30" height="24" viewBox="0 0 30 24" fill="none" xmlns="http://www.w3.org/2000/svg">
<path d="M14.6023 6.38768L5.0004 14.2959V22.8312C5.0004 23.0522 5.08819 23.2641 5.24445 23.4204C5.40072 23.5767 5.61267 23.6645 5.83366 23.6645L11.6697 23.6494C11.8899 23.6483 12.1008 23.56 12.2562 23.4038C12.4116 23.2477 12.4988 23.0364 12.4988 22.8161V17.8316C12.4988 17.6106 12.5866 17.3986 12.7428 17.2424C12.8991 17.0861 13.111 16.9983 13.332 16.9983H16.6651C16.8861 16.9983 17.0981 17.0861 17.2543 17.2424C17.4106 17.3986 17.4984 17.6106 17.4984 17.8316V22.8125C17.498 22.9221 17.5193 23.0307 17.5611 23.1321C17.6028 23.2335 17.6641 23.3257 17.7415 23.4034C17.8189 23.481 17.9109 23.5426 18.0122 23.5847C18.1134 23.6267 18.222 23.6483 18.3317 23.6483L24.1656 23.6645C24.3866 23.6645 24.5985 23.5767 24.7548 23.4204C24.9111 23.2641 24.9989 23.0522 24.9989 22.8312V14.2902L15.3991 6.38768C15.2862 6.29671 15.1456 6.2471 15.0007 6.2471C14.8557 6.2471 14.7151 6.29671 14.6023 6.38768ZM29.7693 11.7628L25.4155 8.174V0.960493C25.4155 0.794745 25.3496 0.635786 25.2324 0.518585C25.1152 0.401384 24.9563 0.335541 24.7905 0.335541H21.8741C21.7083 0.335541 21.5494 0.401384 21.4322 0.518585C21.315 0.635786 21.2491 0.794745 21.2491 0.960493V4.74197L16.5865 0.905809C16.139 0.537598 15.5775 0.336277 14.9981 0.336277C14.4186 0.336277 13.8571 0.537598 13.4096 0.905809L0.226805 11.7628C0.163522 11.8151 0.111165 11.8794 0.0727266 11.9519C0.0342879 12.0244 0.0105204 12.1039 0.00278216 12.1856C-0.0049561 12.2673 0.00348653 12.3498 0.0276277 12.4283C0.0517688 12.5067 0.0911353 12.5797 0.143478 12.6429L1.4715 14.2574C1.5237 14.3209 1.58791 14.3734 1.66044 14.412C1.73298 14.4507 1.81242 14.4746 1.89422 14.4825C1.97603 14.4904 2.05858 14.4821 2.13716 14.458C2.21574 14.4339 2.2888 14.3946 2.35216 14.3423L14.6023 4.25243C14.7151 4.16146 14.8557 4.11185 15.0007 4.11185C15.1456 4.11185 15.2862 4.16146 15.3991 4.25243L27.6497 14.3423C27.7129 14.3946 27.7859 14.434 27.8644 14.4581C27.9428 14.4823 28.0253 14.4907 28.107 14.483C28.1888 14.4752 28.2682 14.4515 28.3407 14.413C28.4133 14.3746 28.4775 14.3222 28.5298 14.2589L29.8579 12.6445C29.9101 12.5809 29.9493 12.5076 29.9732 12.4287C29.9971 12.3499 30.0051 12.2672 29.9969 12.1852C29.9886 12.1033 29.9643 12.0238 29.9253 11.9513C29.8862 11.8788 29.8332 11.8147 29.7693 11.7628Z" fill="#444B59"/>
</svg>
